<svg width="178" height="178" viewBox="0 0 178 178" fill="none" xmlns="http://www.w3.org/2000/svg">
<path d="M88.3282 2.27771C88.714 1.61536 89.6708 1.61537 90.0565 2.27772L101.745 22.3482C102.047 22.8677 102.736 23.0048 103.215 22.6406L121.694 8.57073C122.303 8.10641 123.187 8.47258 123.29 9.23212L126.408 32.2477C126.489 32.8434 127.073 33.2338 127.654 33.0804L150.111 27.1531C150.852 26.9575 151.529 27.6341 151.333 28.3752L145.406 50.8319C145.252 51.4132 145.643 51.9974 146.238 52.0781L169.254 55.1958C170.014 55.2987 170.38 56.1827 169.915 56.7926L155.846 75.2716C155.481 75.7499 155.619 76.4391 156.138 76.7416L176.208 88.4297C176.871 88.8154 176.871 89.7722 176.208 90.158L156.138 101.846C155.619 102.149 155.481 102.838 155.846 103.316L169.915 121.795C170.38 122.405 170.014 123.289 169.254 123.392L146.238 126.51C145.643 126.59 145.252 127.174 145.406 127.756L151.333 150.212C151.529 150.954 150.852 151.63 150.111 151.435L127.654 145.507C127.073 145.354 126.489 145.744 126.408 146.34L123.29 169.356C123.187 170.115 122.303 170.481 121.694 170.017L103.215 155.947C102.736 155.583 102.047 155.72 101.745 156.239L90.0565 176.31C89.6708 176.972 88.714 176.972 88.3282 176.31L76.6401 156.239C76.3376 155.72 75.6485 155.583 75.1702 155.947L56.6911 170.017C56.0813 170.481 55.1973 170.115 55.0944 169.356L51.9766 146.34C51.896 145.744 51.3117 145.354 50.7305 145.507L28.2737 151.435C27.5326 151.63 26.8561 150.954 27.0517 150.212L32.9789 127.756C33.1323 127.174 32.742 126.59 32.1463 126.51L9.13068 123.392C8.37114 123.289 8.00497 122.405 8.46929 121.795L22.5392 103.316C22.9033 102.838 22.7663 102.149 22.2468 101.846L2.17627 90.158C1.51392 89.7722 1.51393 88.8154 2.17628 88.4297L22.2468 76.7416C22.7663 76.4391 22.9033 75.7499 22.5392 75.2716L8.46929 56.7926C8.00497 56.1827 8.37114 55.2987 9.13068 55.1958L32.1463 52.0781C32.742 51.9974 33.1323 51.4132 32.9789 50.8319L27.0517 28.3752C26.8561 27.6341 27.5327 26.9575 28.2738 27.1531L50.7305 33.0804C51.3117 33.2338 51.896 32.8434 51.9766 32.2477L55.0944 9.23212C55.1973 8.47258 56.0813 8.10641 56.6911 8.57073L75.1702 22.6406C75.6485 23.0048 76.3376 22.8677 76.6401 22.3482L88.3282 2.27771Z" fill="#3F2AFF"/>
<path d="M102.735 107.317L125.847 109.746L130.523 99.0829L132.741 94.0267L109.629 91.5976L116.295 76.3981L119.811 68.3808L100.902 66.3933L90.7199 89.6101L67.6085 87.181L60.7146 102.901L67.7693 103.642L83.8259 105.33L73.6441 128.547L92.5535 130.534L102.735 107.317Z" fill="#F099B9"/>
<path d="M132.741 94.0267L109.629 91.5976L116.295 76.3981L123.31 77.4116L132.741 94.0267Z" fill="#F099B9"/>
<path d="M119.811 68.3808L100.902 66.3933L91.4776 49.582L110.373 51.5569L119.811 68.3808Z" fill="#F099B9"/>
<path d="M100.902 66.3933L90.7199 89.6101L81.3702 72.629L91.4776 49.582L100.902 66.3933Z" fill="#F099B9"/>
<path d="M90.7199 89.6101L67.6085 87.181L58.2482 70.5557L81.3702 72.629L90.7199 89.6101Z" fill="#F099B9"/>
<path d="M67.6085 87.181L60.7146 102.901L51.4483 86.0612L58.2482 70.5557L67.6085 87.181Z" fill="#F099B9"/>
<path d="M83.8259 105.33L73.6441 128.547L64.2355 111.7L67.7693 103.642L83.8259 105.33Z" fill="#F099B9"/>
<path d="M132.741 94.0267L109.629 91.5976L116.295 76.3981M132.741 94.0267L130.523 99.0829L125.847 109.746L102.735 107.317L92.5535 130.534L73.6441 128.547M132.741 94.0267L123.31 77.4116L116.295 76.3981M119.811 68.3808L100.902 66.3933M119.811 68.3808L116.295 76.3981M119.811 68.3808L110.373 51.5569L91.4776 49.582M100.902 66.3933L90.7199 89.6101M100.902 66.3933L91.4776 49.582M90.7199 89.6101L67.6085 87.181M90.7199 89.6101L81.3702 72.629M67.6085 87.181L60.7146 102.901M67.6085 87.181L58.2482 70.5557M60.7146 102.901L51.4483 86.0612L58.2482 70.5557M60.7146 102.901L67.7693 103.642M73.6441 128.547L83.8259 105.33L67.7693 103.642M73.6441 128.547L64.2355 111.7L67.7693 103.642M91.4776 49.582L81.3702 72.629M81.3702 72.629L58.2482 70.5557" stroke="black" stroke-width="0.5"/>
<path d="M60.9585 102.742L67.7203 87.3618L90.8889 89.7321L101.043 66.543L119.511 68.5548L109.337 91.7544L132.428 94.1992L125.739 109.557L102.587 107.094L92.4464 130.316L73.8992 128.371L84.0262 105.438L60.9585 102.742Z" fill="#FCFF71" stroke="black" stroke-width="0.5"/>
</svg>
