<svg width="178" height="178" viewBox="0 0 178 178" fill="none" xmlns="http://www.w3.org/2000/svg">
<path d="M87.6573 1.79041C88.0431 1.12806 88.9999 1.12806 89.3856 1.79041L101.074 21.8609C101.376 22.3804 102.065 22.5175 102.544 22.1533L121.023 8.08342C121.633 7.6191 122.517 7.98528 122.619 8.74481L125.737 31.7604C125.818 32.3561 126.402 32.7465 126.983 32.5931L149.44 26.6658C150.181 26.4702 150.858 27.1468 150.662 27.8879L144.735 50.3446C144.582 50.9258 144.972 51.5101 145.568 51.5908L168.583 54.7085C169.343 54.8114 169.709 55.6954 169.245 56.3053L155.175 74.7843C154.811 75.2626 154.948 75.9518 155.467 76.2543L175.538 87.9424C176.2 88.3281 176.2 89.2849 175.538 89.6707L155.467 101.359C154.948 101.661 154.811 102.35 155.175 102.829L169.245 121.308C169.709 121.918 169.343 122.802 168.583 122.905L145.568 126.022C144.972 126.103 144.582 126.687 144.735 127.268L150.662 149.725C150.858 150.466 150.181 151.143 149.44 150.947L126.983 145.02C126.402 144.867 125.818 145.257 125.737 145.853L122.619 168.868C122.517 169.628 121.633 169.994 121.023 169.53L102.544 155.46C102.065 155.096 101.376 155.233 101.074 155.752L89.3856 175.823C88.9999 176.485 88.0431 176.485 87.6573 175.823L75.9692 155.752C75.6667 155.233 74.9776 155.096 74.4993 155.46L56.0202 169.53C55.4104 169.994 54.5264 169.628 54.4235 168.868L51.3057 145.853C51.2251 145.257 50.6408 144.867 50.0596 145.02L27.6028 150.947C26.8618 151.143 26.1852 150.466 26.3808 149.725L32.308 127.268C32.4614 126.687 32.0711 126.103 31.4754 126.022L8.45978 122.905C7.70024 122.802 7.33407 121.918 7.79839 121.308L21.8683 102.829C22.2324 102.35 22.0954 101.661 21.5759 101.359L1.50537 89.6707C0.843026 89.2849 0.843028 88.3281 1.50538 87.9424L21.5759 76.2543C22.0954 75.9518 22.2324 75.2626 21.8683 74.7843L7.79839 56.3053C7.33407 55.6954 7.70024 54.8114 8.45978 54.7085L31.4754 51.5908C32.0711 51.5101 32.4614 50.9258 32.308 50.3446L26.3808 27.8879C26.1852 27.1468 26.8618 26.4702 27.6029 26.6658L50.0596 32.5931C50.6408 32.7465 51.2251 32.3561 51.3057 31.7604L54.4235 8.74481C54.5264 7.98527 55.4104 7.6191 56.0202 8.08343L74.4993 22.1533C74.9776 22.5175 75.6667 22.3804 75.9692 21.8609L87.6573 1.79041Z" fill="#3F2AFF"/>
<path d="M69.7435 103.149C68.8273 102.192 68.3896 101.572 67.8161 100.445C67.2955 99.2263 66.9709 98.3045 66.7542 96.7717C66.6397 95.91 66.5517 95.0023 66.5962 93.8651C66.7341 88.008 69.0602 80.9049 74.4092 74.0783C77.3045 70.5476 80.5457 67.5839 84.8265 65.8936C86.0645 65.4455 87.1047 65.128 88.6763 65.0561C89.9847 65.0159 90.7864 65.1115 91.9746 65.4915C92.6244 65.7442 92.808 65.8502 93.4047 66.1948C94.0208 66.6117 94.1585 66.6912 94.6299 67.1469C95.5266 68.0319 95.9837 68.7242 96.5573 69.851C97.0778 71.0695 97.4024 71.9914 97.6191 73.5242C98.1651 77.8788 97.2843 82.2666 95.7079 86.3751C95.4817 86.9789 95.1831 87.6022 94.9568 88.206C92.6933 93.0807 89.736 97.2488 85.5322 100.82C83.1107 102.788 80.6717 104.256 77.6113 104.999C76.2886 105.275 75.381 105.363 74.0143 105.186C72.72 104.99 72.0703 104.737 71.0145 104.128C70.4178 103.783 70.2607 103.631 69.7435 103.149ZM92.6301 102.837L100.07 106.275L104.008 100.409L99.2144 93.2346C100.746 90.2632 101.483 88.669 102.621 85.5315C103.334 83.5558 103.461 83.0172 104.035 80.962L114.03 74.6754C114.402 70.8508 114.271 72.244 114.655 68.6101L105.211 70.8691C105.056 68.6989 104.97 67.3639 104.304 65.0204C103.804 63.447 103.57 63.0054 102.873 61.5625C103.436 60.4803 102.449 62.297 109.673 49.1476L106.635 46.3531L97.9635 56.7085C96.8283 56.2367 96.7365 56.1837 95.8501 55.9168C94.6812 55.6092 93.9061 55.4677 92.6241 55.4619C91.4605 55.4633 91.1974 55.495 89.8094 55.6729L89.5446 44.2587L84.6245 46.3143L81.6892 58.8188C80.1332 59.8177 80.1332 59.8177 78.8933 60.6932C76.0568 62.8501 74.7426 64.1722 72.3844 66.6666L65.183 62.8148L61.1798 68.5824L65.6431 76.1167C64.6554 77.9334 64.5229 78.1629 63.8462 79.5471C62.134 83.1488 61.487 85.2234 60.4936 88.3221L50.4743 94.2273L49.6778 100.377L58.9753 98.5845C59.0822 101.156 59.147 102.845 59.9372 105.505C60.2935 106.69 60.4435 106.96 60.964 108.179L53.8616 120.481L56.7671 123.505C61.1285 118.495 63.2429 116.104 65.5888 113.419C66.7434 113.964 67.1565 114.202 68.4172 114.563C70.6631 115.125 71.9063 114.986 73.5503 114.895L73.6172 126.439L78.5497 124.575L81.8205 112.019C83.6467 110.87 84.2595 110.551 86.1264 109.119C89.1944 106.667 90.5687 105.135 92.6301 102.837Z" fill="#F099B9" stroke="black" stroke-width="0.5" stroke-miterlimit="10" stroke-linecap="round" stroke-linejoin="round"/>
<path d="M110.686 63.9333L119.358 53.5779L106.735 46.2899L98.4424 57.048L110.686 63.9333Z" fill="#F099B9" stroke="black" stroke-width="0.5" stroke-miterlimit="10" stroke-linecap="round" stroke-linejoin="round"/>
<path d="M110.686 63.9324L93.7479 54.1532L91.289 57.1402L102.558 62.8509L110.686 63.9324Z" fill="#F099B9" stroke="black" stroke-width="0.5" stroke-miterlimit="10" stroke-linecap="round" stroke-linejoin="round"/>
<path d="M127.325 75.9256L111.672 66.8885L103.81 69.6936L117.881 78.1845L127.325 75.9256Z" fill="#F099B9" stroke="black" stroke-width="0.5" stroke-miterlimit="10" stroke-linecap="round" stroke-linejoin="round"/>
<path d="M86.2429 133.728L73.6198 126.44L73.7345 115.428L86.3473 122.098L86.2429 133.728Z" fill="#F099B9" stroke="black" stroke-width="0.5" stroke-miterlimit="10" stroke-linecap="round" stroke-linejoin="round"/>
<path d="M86.2785 118.082C86.2274 117.746 72.2438 107.408 72.4028 107.133C72.5618 106.858 82.4504 106.691 91.5925 94.0369C93.5692 91.5672 94.6596 88.8306 95.6368 86.3958C99.0282 77.7657 97.1023 70.2886 97.1023 70.2886L111.409 74.4482L111.211 93.9797L102.208 110.632L86.2785 118.082Z" fill="#9AEEE6" stroke="black" stroke-width="0.5" stroke-miterlimit="10" stroke-linecap="round" stroke-linejoin="round"/>
<path d="M85.1081 73.8901C87.5334 71.0673 90.7268 68.5044 94.4129 66.0423L81.7897 58.7543C78.0843 61.144 74.9368 63.7334 72.4849 66.6021L85.1081 73.8901Z" fill="#F099B9" stroke="black" stroke-width="0.5" stroke-miterlimit="10" stroke-linecap="round" stroke-linejoin="round"/>
<path d="M82.368 110.438C81.4518 109.481 81.0141 108.861 80.4406 107.734C79.9201 106.515 79.5954 105.594 79.3787 104.061C79.2642 103.199 79.1762 102.291 79.2207 101.154C79.3586 95.2971 81.6847 88.194 87.0337 81.3673C89.929 77.8367 93.1702 74.8729 97.451 73.1826C98.689 72.7345 99.7292 72.417 101.301 72.3451C102.609 72.3049 103.411 72.4005 104.599 72.7806C105.249 73.0333 105.432 73.1393 106.029 73.4838C106.645 73.9007 106.783 73.9802 107.254 74.436C108.151 75.3209 108.608 76.0133 109.182 77.14C109.702 78.3586 110.027 79.2805 110.244 80.8132C110.892 85.8389 109.614 90.9152 107.581 95.4951C105.318 100.37 102.361 104.538 98.1568 108.109C95.7352 110.077 93.2962 111.545 90.2358 112.288C88.9131 112.564 88.0055 112.652 86.6388 112.475C85.3445 112.279 84.6948 112.026 83.639 111.417C83.0423 111.072 82.8852 110.92 82.368 110.438ZM105.346 110.179L112.695 113.564L116.632 107.698L111.839 100.524C113.371 97.5523 114.108 95.958 115.246 92.8205C115.958 90.8448 116.085 90.3063 116.66 88.2511L126.655 81.9645C127.027 78.1399 126.896 79.5331 127.28 75.8992L117.836 78.1581C117.681 75.9879 117.595 74.6529 116.928 72.3095C116.429 70.736 116.194 70.2945 115.497 68.8516C116.061 67.7694 115.073 69.586 122.298 56.4366L119.26 53.6422L110.588 63.9976C109.453 63.5258 109.361 63.4728 108.475 63.2058C107.306 62.8982 106.531 62.7567 105.249 62.751C104.085 62.7524 103.822 62.7841 102.434 62.962L102.169 51.5478L97.249 53.6033L94.3137 66.1078C92.7577 67.1068 92.7577 67.1068 91.5178 67.9822C88.6813 70.1391 87.3671 71.4613 85.0089 73.9556L77.8075 70.1039L73.8043 75.8715L78.2676 83.4058C77.2799 85.2225 77.1474 85.452 76.4707 86.8362C74.7585 90.4379 74.1115 92.5125 73.1181 95.6112L63.0988 101.516L62.3023 107.666L71.5998 105.874C71.7067 108.445 71.7715 110.134 72.5617 112.794C72.918 113.979 73.068 114.249 73.5885 115.468L66.4861 127.77L69.3916 130.794C73.753 125.784 75.8674 123.393 78.2133 120.708C79.3679 121.253 79.781 121.491 81.0417 121.852C83.2876 122.414 84.5308 122.275 86.1748 122.184L86.0704 133.813L91.0029 131.948L94.2737 119.393C96.0999 118.244 96.7127 117.924 98.5796 116.493C101.621 114.087 102.995 112.555 105.103 110.283L105.346 110.179Z" fill="#FCFF71" stroke="black" stroke-width="0.5" stroke-miterlimit="10" stroke-linecap="round" stroke-linejoin="round"/>
<path d="M77.8596 70.0113L65.2364 62.7233L61.2332 68.4909L73.8564 75.7789L77.8596 70.0113Z" fill="#F099B9" stroke="black" stroke-width="0.5" stroke-miterlimit="10" stroke-linecap="round" stroke-linejoin="round"/>
<path d="M78.3208 83.3137L65.6977 76.0257L61.2344 68.4914L73.8575 75.7794L78.3208 83.3137Z" fill="#F099B9" stroke="black" stroke-width="0.5" stroke-miterlimit="10" stroke-linecap="round" stroke-linejoin="round"/>
<path d="M78.3199 83.3143C76.1131 87.2425 74.3725 91.3174 73.2163 95.5462L60.5932 88.2582C61.7229 84.0754 63.5359 79.981 65.6967 76.0263L78.3199 83.3143Z" fill="#F099B9" stroke="black" stroke-width="0.5" stroke-miterlimit="10" stroke-linecap="round" stroke-linejoin="round"/>
<path d="M60.5927 88.2569L73.2159 95.5449L63.1966 101.45L50.5734 94.1621L60.5927 88.2569Z" fill="#F099B9" stroke="black" stroke-width="0.5" stroke-miterlimit="10" stroke-linecap="round" stroke-linejoin="round"/>
<path d="M50.5746 94.1626L49.778 100.313L62.4011 107.601L63.1977 101.451L50.5746 94.1626Z" fill="#F099B9" stroke="black" stroke-width="0.5" stroke-miterlimit="10" stroke-linecap="round" stroke-linejoin="round"/>
<path d="M84.678 46.224L97.3012 53.512L94.4119 66.043L81.7428 58.7285L84.678 46.224Z" fill="#F099B9" stroke="black" stroke-width="0.5" stroke-miterlimit="10" stroke-linecap="round" stroke-linejoin="round"/>
<path d="M84.6788 46.2226L89.6449 44.1935L102.268 51.4815L97.302 53.5106L84.6788 46.2226Z" fill="#F099B9" stroke="black" stroke-width="0.5" stroke-miterlimit="10" stroke-linecap="round" stroke-linejoin="round"/>
<path d="M73.7597 115.383L66.6572 127.685L54.0341 120.397L61.1365 108.095L73.7597 115.383Z" fill="#F099B9" stroke="black" stroke-width="0.5" stroke-miterlimit="10" stroke-linecap="round" stroke-linejoin="round"/>
<path d="M66.6574 127.685L69.563 130.708L56.9398 123.42L54.0343 120.397L66.6574 127.685Z" fill="#F099B9" stroke="black" stroke-width="0.5" stroke-miterlimit="10" stroke-linecap="round" stroke-linejoin="round"/>
</svg>
