<svg width="177" height="178" viewBox="0 0 177 178" fill="none" xmlns="http://www.w3.org/2000/svg">
<path d="M87.6368 2.27771C88.0226 1.61536 88.9794 1.61537 89.3651 2.27772L101.053 22.3482C101.356 22.8677 102.045 23.0048 102.523 22.6406L121.002 8.57073C121.612 8.10641 122.496 8.47258 122.599 9.23212L125.717 32.2477C125.797 32.8434 126.382 33.2338 126.963 33.0804L149.42 27.1531C150.161 26.9575 150.837 27.6341 150.642 28.3752L144.714 50.8319C144.561 51.4132 144.951 51.9974 145.547 52.0781L168.563 55.1958C169.322 55.2987 169.688 56.1827 169.224 56.7926L155.154 75.2716C154.79 75.7499 154.927 76.4391 155.447 76.7416L175.517 88.4297C176.179 88.8154 176.179 89.7722 175.517 90.158L155.447 101.846C154.927 102.149 154.79 102.838 155.154 103.316L169.224 121.795C169.688 122.405 169.322 123.289 168.563 123.392L145.547 126.51C144.951 126.59 144.561 127.174 144.714 127.756L150.642 150.212C150.837 150.954 150.161 151.63 149.42 151.435L126.963 145.507C126.382 145.354 125.797 145.744 125.717 146.34L122.599 169.356C122.496 170.115 121.612 170.481 121.002 170.017L102.523 155.947C102.045 155.583 101.356 155.72 101.053 156.239L89.3651 176.31C88.9794 176.972 88.0226 176.972 87.6368 176.31L75.9487 156.239C75.6462 155.72 74.9571 155.583 74.4788 155.947L55.9997 170.017C55.3899 170.481 54.5059 170.115 54.403 169.356L51.2852 146.34C51.2045 145.744 50.6203 145.354 50.0391 145.507L27.5823 151.435C26.8412 151.63 26.1646 150.954 26.3603 150.212L32.2875 127.756C32.4409 127.174 32.0505 126.59 31.4549 126.51L8.43927 123.392C7.67973 123.289 7.31356 122.405 7.77788 121.795L21.8478 103.316C22.2119 102.838 22.0749 102.149 21.5554 101.846L1.48487 90.158C0.822518 89.7722 0.82252 88.8154 1.48487 88.4297L21.5554 76.7416C22.0749 76.4391 22.2119 75.7499 21.8478 75.2716L7.77788 56.7926C7.31356 56.1827 7.67973 55.2987 8.43927 55.1958L31.4549 52.0781C32.0505 51.9974 32.4409 51.4132 32.2875 50.8319L26.3603 28.3752C26.1646 27.6341 26.8412 26.9575 27.5823 27.1531L50.0391 33.0804C50.6203 33.2338 51.2045 32.8434 51.2852 32.2477L54.403 9.23212C54.5059 8.47258 55.3899 8.10641 55.9997 8.57073L74.4788 22.6406C74.9571 23.0048 75.6462 22.8677 75.9487 22.3482L87.6368 2.27771Z" fill="#3F2AFF"/>
<path d="M62.4405 63.0214L60.8204 62.5466C57.2661 61.5081 56.6451 62.5384 57.805 67.2171C58.9454 71.8171 60.3126 75.9853 61.5992 81.1751C63.1978 87.623 61.7891 89.5163 57.8107 89.2923L57.8984 89.6462C62.374 91.8753 65.0107 94.9359 66.6092 101.384C67.8958 106.574 68.5462 110.544 69.6866 115.144C70.8465 119.823 72.101 121.348 75.6554 122.386L77.2755 122.861L78.913 129.466L73.5715 127.953C66.1092 125.796 62.0201 121.927 59.7491 112.766C58.2578 106.751 58.3225 103.814 56.9969 98.4667C56.2561 95.4786 53.6893 91.8582 48.1617 90.0986L46.3487 82.7858C51.7886 84.1915 52.8057 81.5606 52.0747 78.6118C50.7491 73.2648 49.1151 69.8722 47.6238 63.8568C45.3527 54.696 48.009 52.7855 55.4615 54.9026L60.803 56.4162L62.4405 63.0214Z" fill="#9AEEE6"/>
<path d="M87.2638 64.0039L92.6053 65.5176C100.068 67.6739 104.157 71.5429 106.428 80.7037C107.919 86.7191 107.854 89.6564 109.18 95.0035C109.921 97.9915 112.488 101.612 118.015 103.372L119.828 110.684C114.388 109.279 113.371 111.91 114.102 114.858C115.428 120.205 117.062 123.598 118.553 129.613C120.824 138.774 118.168 140.685 110.715 138.568L105.374 137.054L103.727 130.409L105.347 130.884C108.901 131.923 109.522 130.892 108.362 126.214C107.222 121.614 105.854 117.446 104.568 112.256C102.969 105.808 104.378 103.915 108.356 104.138L108.269 103.785C103.793 101.556 101.156 98.495 99.5579 92.0471C98.2713 86.8573 97.6209 82.887 96.4805 78.287C95.3206 73.6083 94.066 72.0831 90.5117 71.0445L88.8916 70.5698L87.2638 64.0039Z" fill="#9AEEE6"/>
<path d="M47.306 55.5237L61.6833 45.5729L60.1331 50.2683L65.414 69.3159C65.6651 70.1787 65.7605 70.6672 65.6385 71.575C65.192 74.3558 63.365 74.4534 59.6971 73.7685L61.5076 81.0714C63.2499 81.6283 64.0832 82.0847 65.7631 82.9602C68.8064 85.4642 69.5334 87.0204 70.5041 89.8477C70.5041 89.8477 73.4293 106.097 74.8058 108.916C76.1822 111.736 78.5377 114.207 79.9716 115.368C81.4056 116.529 92.3 120.448 92.3 120.448L78.8265 129.536C74.2739 128.369 68.9151 126.143 67.6716 125.436C66.4281 124.728 63.3074 123.611 61.3331 118.545C59.3588 113.479 58.7099 104.251 57.2182 99.0487C55.7266 93.8465 53.6179 92.9321 52.1861 91.8499C50.7544 90.7676 49.3796 90.3439 48.0841 89.8974L46.3688 82.9783C50.0667 83.4833 51.3449 83.1717 52.1598 81.5426C52.3376 80.378 52.5242 79.7788 52.0536 78.216C49.5869 70.971 48.2755 66.9293 46.8087 59.9578C46.6737 57.9227 46.751 56.9244 47.306 55.5237Z" fill="#9AEEE6" stroke="black"/>
<path d="M118.624 128.049L105.341 136.931L103.737 130.459L108.463 127.231L107.5 122.897C105.738 117.552 104.028 109.853 103.918 108.449C103.808 107.044 104.231 104.688 105.646 104.337C107.061 103.987 108.311 104.129 108.311 104.129L108.445 103.816C108.445 103.816 106.669 102.91 105.719 102.389C104.769 101.868 102.803 99.6011 101.78 98.0742C100.757 96.5473 99.0494 90.367 99.0494 90.367C99.0494 90.367 95.8864 76.116 95.0808 74.359C94.2752 72.602 93.3803 72.0714 92.3404 71.722L88.8762 70.5474L87.2616 64.0344L100.626 54.9854L102.568 60.9944L103.933 61.0184L107.503 63.1219L110.674 69.9435L115.673 86.4552L117.214 90.8431L121.754 94.6683L121.888 95.2087L120.565 95.7178L117.584 97.8155L122.52 120.04L121.935 121.824L117.681 124.247L118.624 128.049Z" fill="#9AEEE6" stroke="black"/>
<path d="M113.926 139.355C111.615 139.186 105.371 137.088 105.371 137.088L118.517 126.268L130.493 123.847L131.459 129.484C131.459 129.484 120.36 136.864 119.179 137.735C117.999 138.606 116.236 139.525 113.926 139.355Z" fill="#9AEEE6" stroke="black"/>
<path d="M75.7619 53.974L74.1419 53.4992C70.5875 52.4607 69.9665 53.491 71.1264 58.1697C72.2668 62.7697 73.634 66.9379 74.9207 72.1277C76.5192 78.5756 75.1105 80.4689 71.1321 80.2449L71.2199 80.5988C75.6954 82.8279 78.3321 85.8884 79.9306 92.3363C81.2172 97.5261 81.8676 101.496 83.008 106.096C84.1679 110.775 85.4224 112.3 88.9768 113.339L90.5969 113.814L92.2344 120.419L86.8929 118.905C79.4307 116.749 75.3415 112.88 73.0705 103.719C71.5792 97.7036 71.6439 94.7663 70.3183 89.4193C69.5775 86.4312 67.0107 82.8108 61.4831 81.0512L59.6701 73.7384C65.11 75.1441 66.1271 72.5132 65.3961 69.5644C64.0705 64.2174 62.4365 60.8248 60.9452 54.8094C58.6741 45.6486 61.3304 43.7381 68.783 45.8552L74.1244 47.3688L75.7619 53.974Z" fill="#F099B9" stroke="black" stroke-miterlimit="10"/>
<path d="M100.587 54.9556L105.929 56.4693C113.391 58.6257 117.48 62.4946 119.751 71.6554C121.243 77.6708 121.178 80.6082 122.503 85.9552C123.244 88.9433 125.811 92.5636 131.339 94.3232L133.152 101.636C127.712 100.23 126.695 102.861 127.426 105.81C128.751 111.157 130.385 114.55 131.877 120.565C134.148 129.726 131.491 131.636 124.039 129.519L118.697 128.006L117.05 121.361L118.67 121.836C122.224 122.874 122.845 121.844 121.686 117.165C120.545 112.565 119.178 108.397 117.891 103.207C116.293 96.7596 117.701 94.8662 121.68 95.0902L121.592 94.7364C117.117 92.5073 114.48 89.4467 112.881 82.9988C111.595 77.809 110.944 73.8387 109.804 69.2387C108.644 64.5601 107.39 63.0348 103.835 61.9963L102.215 61.5215L100.587 54.9556Z" fill="#F099B9" stroke="black" stroke-miterlimit="10"/>
<path d="M88.8603 70.5457L102.139 61.515L100.514 54.9607L87.2354 63.9914L88.8603 70.5457Z" stroke="black"/>
<path d="M105.394 137.005L118.74 127.937L117.111 121.367L103.766 130.435L105.394 137.005Z" fill="#9AEEE6" stroke="black"/>
<path d="M46.3082 82.8661L59.7494 73.7013L61.5793 81.0825L48.0466 89.8784L46.3082 82.8661Z" fill="#9AEEE6" stroke="black"/>
</svg>
