<svg width="177" height="178" viewBox="0 0 177 178" fill="none" xmlns="http://www.w3.org/2000/svg">
<path d="M87.6359 2.04395C88.0216 1.3816 88.9784 1.3816 89.3642 2.04395L101.052 22.1145C101.355 22.6339 102.044 22.771 102.522 22.4069L121.001 8.33696C121.611 7.87264 122.495 8.23882 122.598 8.99835L125.716 32.0139C125.796 32.6096 126.381 33 126.962 32.8466L149.419 26.9193C150.16 26.7237 150.836 27.4003 150.641 28.1414L144.713 50.5982C144.56 51.1794 144.95 51.7636 145.546 51.8443L168.562 54.9621C169.321 55.065 169.687 55.949 169.223 56.5588L155.153 75.0379C154.789 75.5161 154.926 76.2053 155.446 76.5078L175.516 88.1959C176.178 88.5816 176.178 89.5385 175.516 89.9242L155.446 101.612C154.926 101.915 154.789 102.604 155.153 103.082L169.223 121.561C169.687 122.171 169.321 123.055 168.562 123.158L145.546 126.276C144.95 126.356 144.56 126.941 144.713 127.522L150.641 149.979C150.836 150.72 150.16 151.396 149.419 151.201L126.962 145.274C126.381 145.12 125.796 145.51 125.716 146.106L122.598 169.122C122.495 169.881 121.611 170.247 121.001 169.783L102.522 155.713C102.044 155.349 101.355 155.486 101.052 156.006L89.3641 176.076C88.9784 176.739 88.0216 176.739 87.6358 176.076L75.9477 156.006C75.6452 155.486 74.9561 155.349 74.4778 155.713L55.9987 169.783C55.3889 170.247 54.5049 169.881 54.402 169.122L51.2843 146.106C51.2036 145.51 50.6193 145.12 50.0381 145.274L27.5814 151.201C26.8403 151.396 26.1637 150.72 26.3593 149.979L32.2865 127.522C32.4399 126.941 32.0496 126.356 31.4539 126.276L8.43829 123.158C7.67876 123.055 7.31258 122.171 7.77691 121.561L21.8468 103.082C22.211 102.604 22.0739 101.915 21.5544 101.612L1.48389 89.9242C0.821541 89.5385 0.821544 88.5816 1.48389 88.1959L21.5544 76.5078C22.0739 76.2053 22.211 75.5161 21.8468 75.0379L7.77691 56.5588C7.31258 55.949 7.67876 55.065 8.4383 54.9621L31.4539 51.8443C32.0496 51.7636 32.4399 51.1794 32.2865 50.5982L26.3593 28.1414C26.1637 27.4003 26.8403 26.7237 27.5814 26.9193L50.0381 32.8466C50.6193 33 51.2036 32.6096 51.2843 32.0139L54.402 8.99835C54.5049 8.23881 55.3889 7.87264 55.9987 8.33697L74.4778 22.4069C74.9561 22.771 75.6452 22.6339 75.9477 22.1145L87.6359 2.04395Z" fill="#3F2AFF"/>
<path d="M76.2172 56.8898L78.425 83.2173L72.4948 91.8929L70.1801 53.3483L75.3863 45.7319L96.6682 56.5288L90.7038 65.2543L76.4655 56.5317L76.1721 56.3519L76.2172 56.8898Z" fill="#F099B9" stroke="black" stroke-width="0.5"/>
<path d="M73.5854 106.577L71.3091 101.835L110.4 72.7095L112.695 77.4894L73.5854 106.577Z" fill="#F099B9" stroke="black" stroke-width="0.5"/>
<path d="M108.566 123.574L106.263 97.3934L112.154 88.7762L114.51 127.26L109.336 134.829L87.9782 124.143L93.9078 115.469L108.32 123.936L108.613 124.108L108.566 123.574Z" fill="#F099B9" stroke="black" stroke-width="0.5"/>
<path d="M73.7001 106.917L59.1335 104.25L98.2574 74.9577L112.824 77.6241L73.7001 106.917Z" fill="#9AEEE6" stroke="black" stroke-width="0.5"/>
<path d="M109.452 135.092L94.857 132.467L100.106 124.787L97.6755 85.7682L112.313 88.2422L114.645 127.495L109.452 135.092Z" fill="#F099B9"/>
<path d="M93.9267 115.14L79.3171 112.625L95.456 123.657L99.2497 122.515L93.9267 115.14Z" fill="#F099B9"/>
<path d="M114.645 127.495L109.452 135.092L94.857 132.467L100.106 124.787M114.645 127.495L100.106 124.787M114.645 127.495L112.313 88.2422L97.6755 85.7682L100.106 124.787M79.3171 112.625L93.9267 115.14L99.2497 122.515L95.456 123.657L79.3171 112.625Z" stroke="black" stroke-width="0.5"/>
<path d="M109.452 135.092L94.858 132.466L100.107 124.787L114.646 127.494L109.452 135.092Z" fill="#9AEEE6" stroke="black" stroke-width="0.5"/>
<path d="M79.0376 83.7449L64.0133 80.8925L57.8439 89.9178L73.0079 92.566L79.0376 83.7449Z" fill="#9AEEE6" stroke="black" stroke-width="0.5"/>
<path d="M78.628 83.6099L63.9823 80.7948L61.7771 53.8991L76.1199 54.4198L78.628 83.6099Z" fill="#F099B9" stroke="black" stroke-width="0.5"/>
<path d="M61.7098 54.3196L63.9177 80.6471L57.9875 89.3227L55.6728 50.7781L60.879 43.1618L82.1584 53.9574L76.0969 62.7112L61.9587 53.9619L61.6646 53.7799L61.7098 54.3196Z" fill="#FCFF71" stroke="black" stroke-width="0.5"/>
<path d="M59.0766 104.007L56.8002 99.2657L95.8913 70.1401L98.1861 74.92L59.0766 104.007Z" fill="#FCFF71" stroke="black" stroke-width="0.5"/>
<path d="M94.0579 121.005L91.7554 94.8244L97.6458 86.2072L100.002 124.691L94.828 132.26L73.4703 121.574L79.3999 112.9L93.8118 121.367L94.1048 121.539L94.0579 121.005Z" fill="#FCFF71" stroke="black" stroke-width="0.5"/>
<path d="M98.3852 74.9691L95.9946 69.858L110.508 72.4081L112.897 77.6079L98.3852 74.9691Z" fill="#F099B9" stroke="black" stroke-width="0.5"/>
<path d="M75.4501 45.5223L60.8991 42.9044L82.347 53.8485L96.9144 56.4424L75.4501 45.5223Z" fill="#F099B9" stroke="black" stroke-width="0.5" stroke-linejoin="round"/>
<path d="M96.9141 56.4423L82.3707 53.8648L76.1302 62.9941L90.7227 65.4999L96.9141 56.4423Z" fill="#9AEEE6" stroke="black" stroke-width="0.5" stroke-linejoin="round"/>
</svg>
